<?xml version="1.0" encoding="UTF-8"?>
<svg id="Layer_1" xmlns="http://www.w3.org/2000/svg" version="1.1" viewBox="0 0 486.4 230.7">
  <!-- Generator: Adobe Illustrator 30.6.0, SVG Export Plug-In . SVG Version: 2.1.4 Build 109)  -->
  <defs>
    <style>
      .st0 {
        fill: #db2229;
      }

      .st1 {
        fill: #fff;
        stroke: #000;
        stroke-miterlimit: 10;
        stroke-width: .5px;
      }
    </style>
  </defs>
  <path class="st0" d="M206.1,149.6c-7.8,0-14-2.4-18.5-7.2-4.1-4.3-6.2-9.8-6.2-16.4v-24.3c0-13,8.1-19.6,23.9-19.6h30.3c0,.1,0-23.8,0-23.8,0-3.5-1.4-5.2-4.4-5.2h-12.2c-3.4,0-5,1.5-5,4.7v15.9h-32.6v-14.3c0-14.9,9.2-22.4,27.5-22.4h34.8c16.2,0,24.4,7.8,24.4,23.1v68h8.3v21.7h-70.4ZM220,94.9c-4,0-5.9,1.7-5.9,5.3v27.1c0,4.3,2.1,6.4,6.2,6.4h15.3v-38.7h-15.7Z"/>
  <polygon class="st0" points="119.5 149.6 119.5 127.9 130.1 127.9 130.1 56.2 119.5 56.2 119.5 36.8 172.8 36.8 172.8 56.2 162.5 56.2 162.5 127.9 172.8 127.9 172.9 149.6 119.5 149.6"/>
  <path class="st0" d="M27.2,149.6C9.2,149.6.1,141.2.1,124.6V23.4C.1,15.5,3,9.4,8.9,5.2,13.8,1.8,20.1,0,27.8,0h86.8v21.7H39c-3.7,0-5.5,2.1-5.5,6.4v94.1c0,3.9,1.9,5.8,5.9,5.8h24.6c3.6,0,5.4-2,5.4-6.1v-29.6h-20c0,.1,0-19.2,0-19.2h53.4v53.4c0,7.1-2.6,12.9-7.7,17-5.1,4.1-12,6.3-20.6,6.3H27.2Z"/>
  <rect class="st0" x="131.7" y="0" width="30.1" height="21.7"/>
  <rect class="st0" x="181.5" y="0" width="216" height="21.7"/>
  <path class="st0" d="M350.9,149.6V61.8c0-1.8-.2-2.4-.3-2.7-.2-.3-.6-.5-1.2-.5-2.7,0-6.9,2.8-12.5,8.4-3.8,3.8-6.5,7.1-8.1,9.8v51h10.3v21.7h-52.4v-21.7h10.6V56.2h-10.6v-19.4h42.1v15.5c3.1-3.2,7.6-6.4,13.4-9.5,7.6-4.1,14.7-6.1,21-6.1s11.4,1.7,15.1,5.1c3.7,3.4,5.6,8,5.6,13.7v94.1h-33Z"/>
  <path class="st0" d="M434,149.6c-17.8,0-26.8-8.4-26.8-24.9V56.2h-10.6v-19.4h10.3V0h32.9v36.8h45.2v19.4h-45.4v66.1c.1,3.8,2,5.7,6,5.7h1.7c3.5,0,5.1-2,5.1-6v-11.4h32.5v15.9c0,7.1-2.6,12.9-7.6,17-5,4.1-12,6.2-20.6,6.2h-22.7Z"/>
  <g>
    <polygon class="st1" points="41.6 230.4 41.6 219.3 51.3 219.3 51.3 196 35.9 224.4 22 196.3 22 219.3 31.8 219.3 31.8 230.4 .2 230.4 .2 219.3 10 219.3 10 172.8 .2 172.8 .2 161.7 31.8 161.7 31.8 172.8 28.1 172.8 38.9 194.7 50.8 172.8 41.6 172.8 41.6 161.7 128.8 161.7 128.8 172.8 67.8 172.8 67.8 219.3 76.7 219.3 76.7 230.4 41.6 230.4"/>
    <path class="st1" d="M92.3,230.4c-4.2,0-7.4-1.1-9.6-3.4-2.1-2.1-3.2-4.9-3.2-8.5v-29c0-3.7,1.4-6.6,4.2-8.7,2.3-1.7,5.3-2.5,8.9-2.5h17.3c8.5,0,12.8,4,12.8,11.9v29.1c0,3.4-1.2,6.2-3.7,8.2-2.4,2-5.7,2.9-9.7,2.9h-17ZM97.3,186.9c-.9,0-1.8.3-1.8,2.2v30.9c0,1.4.6,2,2,2h7.4c1.1,0,1.8-.4,1.8-2.1v-30.9c0-1.9-.8-2.2-1.6-2.2h-7.8Z"/>
    <path class="st1" d="M144.6,230.4c-8.4,0-12.7-4-12.7-11.9v-30.2h-4.8v-10h4.6v-16.6h16.1v16.6h20.4v10h-20.4v29.1c0,1.4.6,1.9,2.1,1.9h.8c1,0,1.7-.4,1.7-2.1v-5.8h16v7.8c0,3.4-1.2,6.2-3.7,8.1-2.4,2-5.7,2.9-9.7,2.9h-10.2Z"/>
    <path class="st1" d="M183.8,230.4c-4.1,0-7.4-1.1-9.6-3.4-2.1-2.1-3.2-4.9-3.2-8.5v-29c0-3.7,1.4-6.6,4.2-8.7,2.4-1.7,5.4-2.5,8.9-2.5h17.3c8.5,0,12.8,4,12.8,11.9v29.1c0,3.4-1.2,6.2-3.7,8.2-2.4,2-5.7,2.9-9.7,2.9h-17ZM188.8,186.9c-.9,0-1.8.3-1.8,2.2v30.9c0,1.4.6,2,2,2h7.4c1.1,0,1.8-.4,1.8-2.1v-30.9c0-1.9-.8-2.2-1.6-2.2h-7.8Z"/>
    <path class="st1" d="M218,230.4v-11.1h4.8v-31h-4.8v-10h20.3v6.1c1.2-1.1,2.8-2.2,4.6-3.2,3.3-1.9,6.3-2.9,9.1-2.9s5.4.8,7.2,2.5c1.8,1.7,2.7,3.9,2.7,6.6v20h-16.2v-17.2c0-.4,0-.6,0-.8-.2,0-1.2.3-3.9,3.1-1.4,1.4-2.5,2.9-3.5,4.4v22.4h4.6v11.1h-24.9Z"/>
    <rect class="st1" x="152.2" y="161.7" width="115.2" height="11.1"/>
    <path class="st1" d="M354.5,230.4c-3.7,0-6.6-1.2-8.8-3.4-2-2.1-3-4.7-3-7.9v-11c0-6.2,4-9.5,11.4-9.5h13c0,0,0-10.1,0-10.1,0-1.4-.5-1.7-1.3-1.7h-5.5c-1.3,0-1.6.6-1.6,1.5v7.8h-16v-7.1c0-7.1,4.4-10.8,13-10.8h15.7c7.6,0,11.6,3.8,11.6,11.1v30h3.7v11.1h-32.4ZM360.8,205.8c-1.7,0-2,.7-2,1.7v12.2c0,1.6.6,2.2,2.2,2.2h6.2v-16.1h-6.4Z"/>
    <path class="st1" d="M390.1,230.4v-11.1h4.8v-31h-4.8v-10h20.3v6.1c1.2-1.1,2.8-2.2,4.6-3.2,3.3-1.9,6.3-2.9,9.1-2.9s5.5.8,7.2,2.5c1.8,1.7,2.7,3.9,2.7,6.6v20h-16.2v-17.2c0-.4,0-.6,0-.8-.2,0-1.2.3-3.9,3.1-1.4,1.4-2.5,2.9-3.5,4.4v22.4h4.6v11.1h-24.9Z"/>
    <path class="st1" d="M450.7,230.4c-4.1,0-7.5-1-9.8-3-2.4-2-3.6-4.8-3.6-8.2v-6.6h16v7.1c0,1.9.9,2.2,1.8,2.2h7.5c1.5,0,2-.5,2-2v-3.7c0-2.6-.9-4.1-2.8-4.5l-16.1-3.7c-5.5-1.2-8.3-4.8-8.3-10.7v-7c0-3.6,1.1-6.5,3.2-8.6,2.3-2.2,5.5-3.3,9.7-3.3h17c4,0,7.3,1,9.7,2.9,2.4,2,3.7,4.7,3.7,8.2v6.8h-15.9v-7.3c0-1.9-.9-2.1-1.8-2.1h-7.5c-1.5,0-2,.6-2,2v4.7c0,2,1,3.2,3,3.6l15.2,3.4c6,1.4,9.1,5,9.1,10.9v7.1c0,7.9-4.5,11.9-13.4,11.9h-16.4Z"/>
    <path class="st1" d="M305.8,230.4c-8.5,0-12.8-4-12.8-11.9v-45.6c0-3.8,1.4-6.7,4.2-8.7,2.4-1.7,5.4-2.5,8.9-2.5h180.1v11.1h-175c-.9,0-1.8.3-1.8,2.2v42.4c0,1.4.6,2,2,2h11.1c.9,0,1.8-.3,1.8-2.1v-10.7h16.4v12.7c0,3.4-1.2,6.2-3.7,8.2-2.4,2-5.7,3-9.7,3h-21.3Z"/>
  </g>
</svg>